<?xml version="1.0" encoding="UTF-8"?>
<svg version="1.1" xmlns="http://www.w3.org/2000/svg" width="4320" height="4321">
<path d="M0 0 C2.0508482 1.87153734 4.08095844 3.76411133 6.10546875 5.6640625 C8.21492314 7.62439493 10.34727192 9.48945308 12.5703125 11.31640625 C16.39491601 14.56180298 19.54035706 18.29395936 22.7578125 22.12890625 C23.50933594 22.99257812 24.26085938 23.85625 25.03515625 24.74609375 C49.53174088 53.30609289 63.42963619 87.50082802 77.66894531 121.8777771 C82.41656103 133.33811556 87.23698271 144.76699421 92.0703125 156.19140625 C98.32953663 170.9914381 104.56092426 185.80266662 110.7578125 200.62890625 C119.24466823 220.93078276 127.79859196 241.20398307 136.36669922 261.47167969 C140.72947592 271.79251869 145.08619459 282.11591703 149.44403076 292.43884277 C150.63061829 295.24960899 151.81724615 298.06035817 153.00390625 300.87109375 C153.59141663 302.262677 153.59141663 302.262677 154.1907959 303.68237305 C156.57456106 309.32804237 158.95973138 314.97311582 161.34597778 320.61773682 C169.89057737 340.82998573 178.40979598 361.05233821 186.87384033 381.29846191 C194.98996286 400.70991712 203.17415829 420.09237816 211.36669922 439.47167969 C215.72947592 449.79251869 220.08619459 460.11591703 224.44403076 470.43884277 C225.63061829 473.24960899 226.81724615 476.06035817 228.00390625 478.87109375 C228.39557983 479.79881592 228.78725342 480.72653809 229.1907959 481.68237305 C231.57456106 487.32804237 233.95973138 492.97311582 236.34597778 498.61773682 C244.89057737 518.82998573 253.40979598 539.05233821 261.87384033 559.29846191 C267.62131437 573.04478405 273.39688613 586.77899947 279.1953125 600.50390625 C279.77980164 601.887453 279.77980164 601.887453 280.37609863 603.2989502 C283.59420975 610.91577927 286.81413078 618.53184294 290.03424072 626.14782715 C292.61426969 632.25005301 295.19365921 638.35254843 297.77224731 644.4553833 C298.96529403 647.27830151 300.15925471 650.10083184 301.35327148 652.92333984 C303.49501461 657.98897414 305.62908865 663.0577882 307.7578125 668.12890625 C308.10642334 668.95801514 308.45503418 669.78712402 308.81420898 670.64135742 C309.81511552 673.02615252 310.8108053 675.41305154 311.8046875 677.80078125 C312.10497864 678.51518372 312.40526978 679.22958618 312.71466064 679.96563721 C314.7578125 684.89875257 314.7578125 684.89875257 314.7578125 687.12890625 C315.4178125 687.12890625 316.0778125 687.12890625 316.7578125 687.12890625 C317.01820312 686.56042969 317.27859375 685.99195313 317.546875 685.40625 C322.60848198 675.88716332 331.38321056 667.91711307 338.7578125 660.12890625 C339.3971875 659.44699219 340.0365625 658.76507812 340.6953125 658.0625 C374.7814999 622.74724334 424.6582841 601.85066615 472.7578125 596.12890625 C473.54953857 596.03464355 474.34126465 595.94038086 475.15698242 595.84326172 C483.57266385 594.96006151 491.99268148 594.88560613 500.4453125 594.87890625 C501.21515472 594.87823151 501.98499695 594.87755676 502.77816772 594.87686157 C565.03817463 594.96303292 621.86759805 619.47818968 665.9453125 663.00390625 C673.19520241 670.27732983 679.75414969 677.80382715 685.7578125 686.12890625 C686.5209375 687.17046875 687.2840625 688.21203125 688.0703125 689.28515625 C696.26647099 700.78254525 703.36590877 712.8823253 709.41015625 725.640625 C709.83859833 726.5435881 710.26704041 727.44655121 710.70846558 728.37687683 C715.38814717 738.33495225 719.69357287 748.44733599 723.96749878 758.58465576 C725.94748621 763.28066321 727.93812709 767.97213474 729.92790222 772.66400146 C730.9717212 775.12557733 732.01512094 777.58732564 733.05781555 780.04937744 C738.56510214 793.05073975 744.12792465 806.02818855 749.6953125 819.00390625 C750.69812713 821.34218332 751.70089389 823.68048092 752.70361328 826.01879883 C754.71604625 830.71153835 756.72877519 835.40415078 758.74169922 840.09667969 C763.24995236 850.60700183 767.75423315 861.11902639 772.25881958 871.63092041 C774.75832173 877.46365185 777.25808006 883.2962735 779.7578125 889.12890625 C780.75781373 891.46223906 781.75781373 893.79557239 782.7578125 896.12890625 C783.2528125 897.28390625 783.7478125 898.43890625 784.2578125 899.62890625 C846.5078125 1044.87890625 846.5078125 1044.87890625 908.7578125 1190.12890625 C909.25278732 1191.28384583 909.74776215 1192.4387854 910.25773621 1193.62872314 C911.25799543 1195.96266472 912.25824974 1198.29660841 913.25849915 1200.6305542 C915.7544928 1206.4545986 918.25057108 1212.27860671 920.74682617 1218.10253906 C925.29473789 1228.71335841 929.84196495 1239.32446894 934.38613892 1249.93688965 C943.9818303 1272.34645388 953.582017 1294.75379068 963.2578125 1317.12890625 C973.45383605 1340.70704052 983.56568161 1364.32109523 993.67724609 1387.93554688 C998.20329627 1398.50509269 1002.7331896 1409.07299132 1007.2628479 1419.64099121 C1009.76133205 1425.47022653 1012.25955907 1431.29957205 1014.7578125 1437.12890625 C1015.75781127 1439.46224011 1016.75781127 1441.79557344 1017.7578125 1444.12890625 C1116.7578134 1675.12890836 1116.7578134 1675.12890836 1193.33456421 1853.80809021 C1194.35304592 1856.18448315 1195.37162083 1858.56083616 1196.39028931 1860.93714905 C1198.90691465 1866.8081576 1201.42197493 1872.67982626 1203.93359375 1878.55297852 C1208.32566803 1888.81917323 1212.72736789 1899.08043008 1217.19319153 1909.31480408 C1219.10285569 1913.69303074 1221.0040122 1918.07492941 1222.9046936 1922.45706177 C1223.78341882 1924.4762926 1224.66630119 1926.49372127 1225.55404663 1928.50900269 C1237.16270915 1954.86661867 1245.89454655 1982.36307162 1248.7578125 2011.12890625 C1248.86867188 2012.20140625 1248.97953125 2013.27390625 1249.09375 2014.37890625 C1253.84578688 2068.83468019 1240.30774419 2126.10783467 1208.7578125 2171.12890625 C1208.24283203 2171.87253418 1207.72785156 2172.61616211 1207.19726562 2173.38232422 C1199.70890807 2184.1146173 1191.68759069 2194.02237098 1182.5078125 2203.34814453 C1180.74225134 2205.14474095 1178.99939654 2206.96143074 1177.2578125 2208.78125 C1169.63367462 2216.66806916 1161.6134586 2223.65903945 1152.7578125 2230.12890625 C1152.21801758 2230.52416504 1151.67822266 2230.91942383 1151.12207031 2231.32666016 C1137.79849932 2240.99333613 1123.66995716 2249.18728233 1108.7578125 2256.12890625 C1107.68370117 2256.62970703 1107.68370117 2256.62970703 1106.58789062 2257.140625 C1087.30775187 2265.99219266 1066.71069167 2271.85308184 1045.7578125 2275.12890625 C1044.64059814 2275.30550781 1043.52338379 2275.48210938 1042.37231445 2275.6640625 C1030.89730421 2277.29616758 1019.52397975 2277.5289843 1007.9453125 2277.50390625 C1006.95469818 2277.50303009 1005.96408386 2277.50215393 1004.94345093 2277.50125122 C945.8280652 2277.32921555 889.69743976 2255.67841055 845.7578125 2216.12890625 C845.19046387 2215.62327148 844.62311523 2215.11763672 844.03857422 2214.59667969 C836.82256322 2208.15198599 829.9968774 2201.54375418 823.7578125 2194.12890625 C823.30583496 2193.59458984 822.85385742 2193.06027344 822.38818359 2192.50976562 C797.81327674 2163.26603674 783.71379376 2128.96800836 769.1071167 2094.11012268 C765.28379644 2084.98994386 761.43174623 2075.88196205 757.58026123 2066.77365112 C750.94161292 2051.07170317 744.33286751 2035.35758586 737.7578125 2019.62890625 C729.27066476 1999.32715091 720.71703365 1979.05383088 712.14892578 1958.78613281 C707.78614908 1948.46529381 703.42943041 1938.14189547 699.07159424 1927.81896973 C697.88500671 1925.00820351 696.69837885 1922.19745433 695.51171875 1919.38671875 C694.92420837 1917.9951355 694.92420837 1917.9951355 694.3248291 1916.57543945 C691.94106394 1910.92977013 689.55589362 1905.28469668 687.16964722 1899.64007568 C678.62504763 1879.42782677 670.10582902 1859.20547429 661.64178467 1838.95935059 C653.52566214 1819.54789538 645.34146671 1800.16543434 637.14892578 1780.78613281 C632.78614908 1770.46529381 628.42943041 1760.14189547 624.07159424 1749.81896973 C622.88500671 1747.00820351 621.69837885 1744.19745433 620.51171875 1741.38671875 C619.92420837 1739.9951355 619.92420837 1739.9951355 619.3248291 1738.57543945 C616.94106394 1732.92977013 614.55589362 1727.28469668 612.16964722 1721.64007568 C603.62504763 1701.42782677 595.10582902 1681.20547429 586.64178467 1660.95935059 C578.52566214 1641.54789538 570.34146671 1622.16543434 562.14892578 1602.78613281 C557.78614908 1592.46529381 553.42943041 1582.14189547 549.07159424 1571.81896973 C547.88500671 1569.00820351 546.69837885 1566.19745433 545.51171875 1563.38671875 C544.92420837 1561.9951355 544.92420837 1561.9951355 544.3248291 1560.57543945 C541.94106394 1554.92977013 539.55589362 1549.28469668 537.16964722 1543.64007568 C528.62504763 1523.42782677 520.10582902 1503.20547429 511.64178467 1482.95935059 C503.52566214 1463.54789538 495.34146671 1444.16543434 487.14892578 1424.78613281 C482.78614908 1414.46529381 478.42943041 1404.14189547 474.07159424 1393.81896973 C472.88500671 1391.00820351 471.69837885 1388.19745433 470.51171875 1385.38671875 C469.92420837 1383.9951355 469.92420837 1383.9951355 469.3248291 1382.57543945 C466.94106394 1376.92977013 464.55589362 1371.28469668 462.16964722 1365.64007568 C453.62504763 1345.42782677 445.10582902 1325.20547429 436.64178467 1304.95935059 C428.52566214 1285.54789538 420.34146671 1266.16543434 412.14892578 1246.78613281 C407.78614908 1236.46529381 403.42943041 1226.14189547 399.07159424 1215.81896973 C397.88500671 1213.00820351 396.69837885 1210.19745433 395.51171875 1207.38671875 C394.92420837 1205.9951355 394.92420837 1205.9951355 394.3248291 1204.57543945 C391.94106394 1198.92977013 389.55589362 1193.28469668 387.16964722 1187.64007568 C378.62504763 1167.42782677 370.10582902 1147.20547429 361.64178467 1126.95935059 C355.89431054 1113.21302823 350.11869039 1099.47883366 344.3203125 1085.75390625 C343.93165009 1084.8338681 343.54298767 1083.91382996 343.14254761 1082.96591187 C339.47580828 1074.28686786 335.80666217 1065.60884191 332.13671875 1056.93115234 C329.94993607 1051.76038229 327.76403079 1046.58924199 325.57858276 1041.41790771 C324.35270446 1038.51803107 323.12571714 1035.61862542 321.89868164 1032.71923828 C321.14463704 1030.93524543 320.39064658 1029.1512297 319.63671875 1027.3671875 C319.30212646 1026.57745041 318.96753418 1025.78771332 318.62280273 1024.9740448 C316.26360893 1019.38676033 313.99340475 1013.76672566 311.7578125 1008.12890625 C310.10201594 1010.61260109 308.9604591 1012.76583543 307.78442383 1015.4777832 C307.39740295 1016.36655151 307.01038208 1017.25531982 306.6116333 1018.17102051 C305.98209747 1019.62937317 305.98209747 1019.62937317 305.33984375 1021.1171875 C304.67272369 1022.65372986 304.67272369 1022.65372986 303.99212646 1024.22131348 C302.51497971 1027.62663056 301.04247437 1031.03393145 299.5703125 1034.44140625 C298.53056718 1036.84271354 297.49077146 1039.243999 296.45092773 1041.64526367 C287.893769 1061.41994645 279.44343518 1081.23983204 271.01507568 1101.06971741 C264.64371344 1116.05934904 258.23983238 1131.03484012 251.8203125 1146.00390625 C251.32363068 1147.16217926 250.82694885 1148.32045227 250.31521606 1149.51382446 C247.80181459 1155.37493149 245.28798735 1161.23585577 242.77392578 1167.09667969 C238.26567264 1177.60700183 233.76139185 1188.11902639 229.25680542 1198.63092041 C226.75730327 1204.46365185 224.25754494 1210.2962735 221.7578125 1216.12890625 C220.75781127 1218.46223906 219.75781127 1220.79557239 218.7578125 1223.12890625 C169.2578125 1338.62890625 119.7578125 1454.12890625 -52.74201965 1856.62850952 C-53.74258405 1858.96316318 -54.74314354 1861.29781894 -55.74369812 1863.63247681 C-58.23502263 1869.44562642 -60.72643098 1875.25874007 -63.21801758 1881.07177734 C-68.0894962 1892.43751276 -72.95980396 1903.8037473 -77.82738113 1915.17115402 C-83.55270909 1928.54160615 -89.28257579 1941.91010539 -95.01824951 1955.27612305 C-96.13140077 1957.87068196 -97.24380926 1960.46555771 -98.35595703 1963.06054688 C-123.90528837 2022.6496674 -154.32303941 2076.83645561 -198.72070312 2124.48974609 C-200.38720348 2126.28513816 -202.04138825 2128.09145672 -203.6953125 2129.8984375 C-209.46567722 2136.1779059 -215.2473024 2142.28448578 -221.6875 2147.890625 C-224.17377573 2150.0689675 -226.59149164 2152.30467224 -229.00439453 2154.56323242 C-235.21026627 2160.36303648 -241.58271876 2165.85047238 -248.2421875 2171.12890625 C-249.45330898 2172.11696203 -250.66423293 2173.10525995 -251.875 2174.09375 C-261.37152056 2181.75020534 -271.28606059 2188.68167043 -281.4296875 2195.44140625 C-282.36356796 2196.06530746 -282.36356796 2196.06530746 -283.3163147 2196.70181274 C-346.11820975 2238.55974385 -417.26375367 2265.01077187 -492.1171875 2274.37890625 C-493.1140155 2274.50366837 -493.1140155 2274.50366837 -494.13098145 2274.63095093 C-507.4923079 2276.28315573 -520.73216063 2277.28486158 -534.203125 2277.33203125 C-535.50955963 2277.33773132 -536.81599426 2277.3434314 -538.16201782 2277.3493042 C-540.92019018 2277.35972487 -543.67833426 2277.36562211 -546.43652344 2277.36914062 C-549.19154483 2277.3734733 -551.94624382 2277.38717716 -554.70117188 2277.41015625 C-580.83651812 2277.62330551 -606.57852238 2275.89435842 -632.3671875 2271.37890625 C-633.10436005 2271.25296082 -633.84153259 2271.12701538 -634.6010437 2270.99725342 C-649.65941111 2268.41520223 -664.48623621 2265.10514916 -679.2421875 2261.12890625 C-680.36351074 2260.82758789 -681.48483398 2260.52626953 -682.64013672 2260.21582031 C-751.06626554 2241.52988136 -817.17255419 2206.44825579 -869.66015625 2158.46484375 C-871.75665714 2156.56816065 -873.87377945 2154.70542994 -876.0078125 2152.8515625 C-880.35757464 2149.05296362 -884.59395652 2145.14301532 -888.8046875 2141.19140625 C-889.52076172 2140.52689453 -890.23683594 2139.86238281 -890.97460938 2139.17773438 C-895.12842725 2135.28093161 -898.99749755 2131.26694002 -902.67797852 2126.91894531 C-904.24747431 2125.12285617 -905.89630733 2123.46684257 -907.6171875 2121.81640625 C-911.32497259 2118.16629781 -914.54302698 2114.1843343 -917.80078125 2110.1328125 C-919.8885853 2107.5639784 -922.02062011 2105.04328098 -924.18286133 2102.53710938 C-981.42456812 2035.95376793 -1016.96004837 1950.47904302 -1033.2421875 1830.12890625 C-1033.29858398 1829.37706055 -1033.35498047 1828.62521484 -1033.41308594 1827.85058594 C-1039.29005692 1748.45931517 -1023.09022984 1670.31905998 -992.07519531 1597.44140625 C-990.01172776 1592.59244127 -987.96696993 1587.73564218 -985.921875 1582.87890625 C-981.45204528 1572.26915514 -976.96831331 1561.66530833 -972.48291016 1551.06213379 C-968.87968007 1542.5436356 -965.278973 1534.0240718 -961.6796875 1525.50390625 C-961.09140671 1524.11155258 -961.09140671 1524.11155258 -960.49124146 1522.69107056 C-954.29196231 1508.01592463 -948.13423157 1493.32371715 -941.99240112 1478.62445068 C-936.27536386 1464.94531394 -930.49873382 1451.29256066 -924.68737793 1437.65325928 C-919.1991669 1424.76926022 -913.76625052 1411.86300456 -908.3671875 1398.94140625 C-902.20750254 1384.20041392 -896.02279207 1369.47035825 -889.8046875 1354.75390625 C-889.41221832 1353.82501587 -889.01974915 1352.89612549 -888.61538696 1351.93908691 C-886.62618581 1347.23150635 -884.63647153 1342.52414289 -882.64648438 1337.81689453 C-878.61330748 1328.27615405 -874.58396976 1318.73379203 -870.5546875 1309.19140625 C-870.15806915 1308.25218323 -869.76145081 1307.31296021 -869.35281372 1306.34527588 C-863.64996264 1292.84004701 -857.95586531 1279.33116067 -852.27011108 1265.81872559 C-848.4053769 1256.63418739 -844.53545959 1247.45187238 -840.65625 1238.2734375 C-832.82245781 1219.73733656 -825.00356031 1201.19546518 -817.2421875 1182.62890625 C-808.75503976 1162.32715091 -800.20140865 1142.05383088 -791.63330078 1121.78613281 C-789.2501492 1116.14841045 -786.86891208 1110.50988095 -784.48828125 1104.87109375 C-783.90077087 1103.4795105 -783.90077087 1103.4795105 -783.3013916 1102.05981445 C-782.11495798 1099.24952533 -780.92856467 1096.4392192 -779.7421875 1093.62890625 C-775.38121688 1083.29855556 -771.02021425 1072.96822085 -766.65402222 1062.64007568 C-758.48498631 1043.31622261 -750.33421132 1023.98515113 -742.2421875 1004.62890625 C-733.75490867 984.32720532 -725.20140892 964.05383153 -716.63330078 943.78613281 C-714.2501492 938.14841045 -711.86891208 932.50988095 -709.48828125 926.87109375 C-709.09660767 925.94337158 -708.70493408 925.01564941 -708.3013916 924.05981445 C-707.11495798 921.24952533 -705.92856467 918.4392192 -704.7421875 915.62890625 C-700.38121688 905.29855556 -696.02021425 894.96822085 -691.65402222 884.64007568 C-683.48498631 865.31622261 -675.33421132 845.98515113 -667.2421875 826.62890625 C-658.75490867 806.32720532 -650.20140892 786.05383153 -641.63330078 765.78613281 C-639.2501492 760.14841045 -636.86891208 754.50988095 -634.48828125 748.87109375 C-634.09660767 747.94337158 -633.70493408 747.01564941 -633.3013916 746.05981445 C-632.11495798 743.24952533 -630.92856467 740.4392192 -629.7421875 737.62890625 C-625.38121688 727.29855556 -621.02021425 716.96822085 -616.65402222 706.64007568 C-608.48498631 687.31622261 -600.33421132 667.98515113 -592.2421875 648.62890625 C-583.75490867 628.32720532 -575.20140892 608.05383153 -566.63330078 587.78613281 C-564.2501492 582.14841045 -561.86891208 576.50988095 -559.48828125 570.87109375 C-559.09660767 569.94337158 -558.70493408 569.01564941 -558.3013916 568.05981445 C-557.11495798 565.24952533 -555.92856467 562.4392192 -554.7421875 559.62890625 C-550.38121688 549.29855556 -546.02021425 538.96822085 -541.65402222 528.64007568 C-533.48498631 509.31622261 -525.33421132 489.98515113 -517.2421875 470.62890625 C-508.75490867 450.32720532 -500.20140892 430.05383153 -491.63330078 409.78613281 C-489.2501492 404.14841045 -486.86891208 398.50988095 -484.48828125 392.87109375 C-484.09660767 391.94337158 -483.70493408 391.01564941 -483.3013916 390.05981445 C-482.11495798 387.24952533 -480.92856467 384.4392192 -479.7421875 381.62890625 C-475.38121688 371.29855556 -471.02021425 360.96822085 -466.65402222 350.64007568 C-458.48498631 331.31622261 -450.33421132 311.98515113 -442.2421875 292.62890625 C-433.75490867 272.32720532 -425.20140892 252.05383153 -416.63330078 231.78613281 C-414.2501492 226.14841045 -411.86891208 220.50988095 -409.48828125 214.87109375 C-409.09660767 213.94337158 -408.70493408 213.01564941 -408.3013916 212.05981445 C-407.11495798 209.24952533 -405.92856467 206.4392192 -404.7421875 203.62890625 C-400.38127013 193.29868172 -396.02034038 182.96846484 -391.6541748 172.64045715 C-390.05906634 168.867201 -388.4643604 165.09377485 -386.86981201 161.32028198 C-386.07909535 159.44908683 -385.28828383 157.57793177 -384.49737549 155.70681763 C-380.09729842 145.29545913 -375.71359562 134.87757166 -371.36328125 124.4453125 C-370.76250008 123.0056311 -370.76250008 123.0056311 -370.14958191 121.53686523 C-368.25160612 116.988152 -366.35629929 112.43836866 -364.46655273 107.88623047 C-360.92371195 99.37364253 -357.29746819 90.90513296 -353.5234375 82.4921875 C-353.1673642 81.6968309 -352.81129089 80.9014743 -352.44442749 80.08201599 C-345.7088918 65.18174159 -337.97590239 51.27735458 -328.2421875 38.12890625 C-327.80293945 37.53271484 -327.36369141 36.93652344 -326.91113281 36.32226562 C-291.82917603 -10.85243386 -239.83399613 -41.24003344 -181.91015625 -50.48046875 C-118.14134202 -59.81704477 -48.63945797 -43.68135231 0 0 Z M-221.4921875 108.50390625 C-228.39446587 116.60163077 -233.18157108 125.67301087 -237.47265625 135.33203125 C-237.86244659 136.20432877 -238.25223694 137.07662628 -238.65383911 137.97535706 C-242.40336266 146.41062535 -245.98672196 154.91266099 -249.52584839 163.43792725 C-251.46552267 168.10961277 -253.41523487 172.77711341 -255.36328125 177.4453125 C-255.76553421 178.40993408 -256.16778717 179.37455566 -256.58222961 180.3684082 C-260.9175502 190.75979535 -265.29605452 201.13282795 -269.6796875 211.50390625 C-270.47372801 213.38321356 -271.26775465 215.26252673 -272.06176758 217.1418457 C-274.85363779 223.74899498 -277.64685368 230.35557516 -280.44006348 236.9621582 C-283.22909263 243.55906072 -286.01736451 250.15628266 -288.8046875 256.75390625 C-289.19741852 257.68341095 -289.59014954 258.61291565 -289.99478149 259.57058716 C-296.19350632 274.24445326 -302.35068112 288.93538221 -308.49197388 303.63336182 C-314.20901114 317.31249856 -319.98564118 330.96525184 -325.79699707 344.60455322 C-331.2852081 357.48855228 -336.71812448 370.39480794 -342.1171875 383.31640625 C-348.27687246 398.05739858 -354.46158293 412.78745425 -360.6796875 427.50390625 C-361.07215668 428.43279663 -361.46462585 429.36168701 -361.86898804 430.31872559 C-363.85818919 435.02630615 -365.84790347 439.73366961 -367.83789062 444.44091797 C-371.87106752 453.98165845 -375.90040524 463.52402047 -379.9296875 473.06640625 C-380.52461502 474.47524078 -380.52461502 474.47524078 -381.13156128 475.91253662 C-386.83441236 489.41776549 -392.52850969 502.92665183 -398.21426392 516.43908691 C-402.0789981 525.62362511 -405.94891541 534.80594012 -409.828125 543.984375 C-417.66191719 562.52047594 -425.48081469 581.06234732 -433.2421875 599.62890625 C-441.72933524 619.93066159 -450.28296635 640.20398162 -458.85107422 660.47167969 C-461.2342258 666.10940205 -463.61546292 671.74793155 -465.99609375 677.38671875 C-466.38776733 678.31444092 -466.77944092 679.24216309 -467.1829834 680.19799805 C-468.36941702 683.00828717 -469.55581033 685.8185933 -470.7421875 688.62890625 C-475.10315812 698.95925694 -479.46416075 709.28959165 -483.83035278 719.61773682 C-491.99938869 738.94158989 -500.15016368 758.27266137 -508.2421875 777.62890625 C-516.72946633 797.93060718 -525.28296608 818.20398097 -533.85107422 838.47167969 C-536.2342258 844.10940205 -538.61546292 849.74793155 -540.99609375 855.38671875 C-541.38776733 856.31444092 -541.77944092 857.24216309 -542.1829834 858.19799805 C-543.36941702 861.00828717 -544.55581033 863.8185933 -545.7421875 866.62890625 C-550.10315812 876.95925694 -554.46416075 887.28959165 -558.83035278 897.61773682 C-566.99938869 916.94158989 -575.15016368 936.27266137 -583.2421875 955.62890625 C-591.72946633 975.93060718 -600.28296608 996.20398097 -608.85107422 1016.47167969 C-611.2342258 1022.10940205 -613.61546292 1027.74793155 -615.99609375 1033.38671875 C-616.38776733 1034.31444092 -616.77944092 1035.24216309 -617.1829834 1036.19799805 C-618.36941702 1039.00828717 -619.55581033 1041.8185933 -620.7421875 1044.62890625 C-625.10315812 1054.95925694 -629.46416075 1065.28959165 -633.83035278 1075.61773682 C-641.99938869 1094.94158989 -650.15016368 1114.27266137 -658.2421875 1133.62890625 C-666.72946633 1153.93060718 -675.28296608 1174.20398097 -683.85107422 1194.47167969 C-686.2342258 1200.10940205 -688.61546292 1205.74793155 -690.99609375 1211.38671875 C-691.58360413 1212.778302 -691.58360413 1212.778302 -692.1829834 1214.19799805 C-693.36941702 1217.00828717 -694.55581033 1219.8185933 -695.7421875 1222.62890625 C-700.10315812 1232.95925694 -704.46416075 1243.28959165 -708.83035278 1253.61773682 C-716.99938869 1272.94158989 -725.15016368 1292.27266137 -733.2421875 1311.62890625 C-741.72946633 1331.93060718 -750.28296608 1352.20398097 -758.85107422 1372.47167969 C-761.2342258 1378.10940205 -763.61546292 1383.74793155 -765.99609375 1389.38671875 C-766.58360413 1390.778302 -766.58360413 1390.778302 -767.1829834 1392.19799805 C-768.36941702 1395.00828717 -769.55581033 1397.8185933 -770.7421875 1400.62890625 C-775.10315812 1410.95925694 -779.46416075 1421.28959165 -783.83035278 1431.61773682 C-791.99938869 1450.94158989 -800.15016368 1470.27266137 -808.2421875 1489.62890625 C-816.72946633 1509.93060718 -825.28296608 1530.20398097 -833.85107422 1550.47167969 C-836.2342258 1556.10940206 -838.61545656 1561.74793423 -840.99609375 1567.38671875 C-841.58407997 1568.77938965 -841.58407997 1568.77938965 -842.1839447 1570.20019531 C-844.15601494 1574.87130813 -846.12781394 1579.54253532 -848.09936523 1584.21386719 C-852.15208387 1593.81540421 -856.20915633 1603.41506987 -860.2734375 1613.01171875 C-863.89787896 1621.5703912 -867.5130394 1630.1329132 -871.1157074 1638.70077515 C-872.7303637 1642.54063469 -874.34660371 1646.3797054 -875.97705078 1650.21289062 C-912.87369692 1737.09141866 -918.85524396 1833.05678677 -884.171875 1921.86962891 C-881.68184338 1928.02641122 -878.98702159 1934.0823991 -876.2421875 1940.12890625 C-875.69038818 1941.37389893 -875.69038818 1941.37389893 -875.12744141 1942.64404297 C-862.36695963 1971.37606867 -845.14363089 1998.06690002 -824.92382812 2022.09863281 C-823.71027159 2023.56378033 -822.51886354 2025.04737157 -821.34179688 2026.54199219 C-815.42412978 2033.99498029 -808.95138499 2040.7272412 -802.20458984 2047.42724609 C-800.36971481 2049.25139372 -798.54579418 2051.08600498 -796.72265625 2052.921875 C-789.87039165 2059.78264957 -782.88707655 2066.15021097 -775.2421875 2072.12890625 C-773.80535078 2073.28957422 -772.36911422 2074.45098572 -770.93359375 2075.61328125 C-717.72116268 2117.95654637 -654.40660454 2141.32674873 -587.2421875 2149.12890625 C-586.33331787 2149.23493164 -585.42444824 2149.34095703 -584.48803711 2149.45019531 C-517.60893544 2156.11481514 -448.55468683 2142.06031761 -389.10107422 2111.09521484 C-387.26963133 2110.14317243 -385.43037164 2109.20776823 -383.58984375 2108.2734375 C-362.19732373 2097.28399213 -342.12221762 2083.48366093 -324.03662109 2067.65209961 C-321.7424014 2065.70466605 -319.38459322 2063.84135986 -317.03515625 2061.9609375 C-311.1599742 2057.16785563 -305.81263607 2051.96107547 -300.4921875 2046.56640625 C-299.59886719 2045.67244141 -298.70554687 2044.77847656 -297.78515625 2043.85742188 C-292.73521614 2038.77401382 -287.87586963 2033.59360621 -283.2421875 2028.12890625 C-282.70609863 2027.50491943 -282.17000977 2026.88093262 -281.61767578 2026.23803711 C-264.12799326 2005.77924906 -249.65907016 1983.54044543 -237.1171875 1959.75390625 C-236.67487793 1958.91883545 -236.23256836 1958.08376465 -235.77685547 1957.22338867 C-226.93354868 1940.13748261 -219.52586797 1922.30331979 -212.03250122 1904.59771729 C-209.53152287 1898.68892202 -207.0207545 1892.78428346 -204.51171875 1886.87890625 C-203.98852675 1885.64682597 -203.46534868 1884.41473978 -202.94218445 1883.18264771 C-197.42575023 1870.19380603 -191.86758054 1857.22290599 -186.3046875 1844.25390625 C-185.30190984 1841.91553195 -184.29914295 1839.57715303 -183.29638672 1837.23876953 C-181.28393163 1832.54612088 -179.27118794 1827.85359614 -177.25830078 1823.16113281 C-172.75004764 1812.65081067 -168.24576685 1802.13878611 -163.74118042 1791.62689209 C-161.24167827 1785.79416065 -158.74191994 1779.961539 -156.2421875 1774.12890625 C-155.24218627 1771.79557344 -154.24218627 1769.46224011 -153.2421875 1767.12890625 C-123.24218741 1697.12890603 -123.24218741 1697.12890603 -121.74221802 1693.62898254 C-120.74211138 1691.295397 -119.74200966 1688.96180936 -118.74191284 1686.6282196 C-116.24358462 1680.7987278 -113.74517137 1674.96927247 -111.24658203 1669.13989258 C-106.7265357 1658.59408462 -102.20712568 1648.04800621 -97.69085693 1637.50057983 C-87.12087893 1612.81528322 -76.53071147 1588.13906236 -65.88513184 1563.48626709 C-55.6351459 1539.7472039 -45.45241293 1515.9794695 -35.27441406 1492.20947266 C-30.76552826 1481.67985552 -26.25270859 1471.15192437 -21.74017334 1460.62387085 C-19.24068244 1454.79228554 -16.74144799 1448.96059032 -14.2421875 1443.12890625 C-13.24218873 1440.79557239 -12.24218873 1438.46223906 -11.2421875 1436.12890625 C-10.4996875 1434.39640625 -10.4996875 1434.39640625 -9.7421875 1432.62890625 C39.7578125 1317.12890625 89.2578125 1201.62890625 186.7578125 974.12890625 C187.50021431 972.39663284 187.50021431 972.39663284 188.25761414 970.62936401 C189.25827044 968.2945027 190.25893166 965.95964349 191.25959778 963.62478638 C193.74959651 957.8148484 196.23951161 952.0048746 198.72924805 946.19482422 C203.34805242 935.41661905 207.96761335 924.63874011 212.59011841 913.86212158 C214.47230703 909.47408585 216.3540788 905.0858714 218.23576546 900.69762039 C219.50522092 897.73723038 220.77497135 894.77696746 222.04516602 891.81689453 C222.51817139 890.71458496 222.99117676 889.61227539 223.47851562 888.4765625 C223.94469299 887.39118195 224.41087036 886.30580139 224.89117432 885.18753052 C225.80763304 883.04653752 226.71946014 880.90355538 227.62640381 878.7585144 C229.99581442 873.16421282 232.44338502 867.6245502 235.01855469 862.12158203 C235.54551437 860.96399384 236.07247406 859.80640564 236.61540222 858.61373901 C237.61953314 856.41043208 238.65040714 854.21903441 239.71284485 852.04324341 C242.73977431 845.29753428 243.10749937 841.20071125 240.48701477 834.23318481 C239.19524746 831.33276421 237.88089977 828.52520303 236.29296875 825.7734375 C232.55860333 818.94151862 229.64877999 811.90084035 226.73565674 804.69406128 C225.16243127 800.82236568 223.54655853 796.96855062 221.93359375 793.11328125 C221.59861877 792.31107651 221.2636438 791.50887177 220.91851807 790.68235779 C213.99234802 774.10285614 206.97575254 757.56114239 199.97711182 741.012146 C196.38164201 732.51004868 192.78757525 724.0073591 189.1953125 715.50390625 C188.80218872 714.57337433 188.40906494 713.64284241 188.00402832 712.68411255 C181.85309388 698.12176107 175.73909971 683.54422153 169.64178467 668.95935059 C161.52566214 649.54789538 153.34146671 630.16543434 145.14892578 610.78613281 C140.78614908 600.46529381 136.42943041 590.14189547 132.07159424 579.81896973 C130.88500671 577.00820351 129.69837885 574.19745433 128.51171875 571.38671875 C127.92420837 569.9951355 127.92420837 569.9951355 127.3248291 568.57543945 C124.94106394 562.92977013 122.55589362 557.28469668 120.16964722 551.64007568 C111.62504763 531.42782677 103.10582902 511.20547429 94.64178467 490.95935059 C86.52566214 471.54789538 78.34146671 452.16543434 70.14892578 432.78613281 C65.78614908 422.46529381 61.42943041 412.14189547 57.07159424 401.81896973 C55.88500671 399.00820351 54.69837885 396.19745433 53.51171875 393.38671875 C52.92420837 391.9951355 52.92420837 391.9951355 52.3248291 390.57543945 C49.94106394 384.92977013 47.55589362 379.28469668 45.16964722 373.64007568 C36.62504763 353.42782677 28.10582902 333.20547429 19.64178467 312.95935059 C11.52566214 293.54789538 3.34146671 274.16543434 -4.85107422 254.78613281 C-8.42279768 246.33665551 -11.99017835 237.88534462 -15.55789185 229.43417358 C-17.13154743 225.70662076 -18.70541325 221.97915672 -20.27928162 218.25169373 C-23.10174443 211.56712822 -25.92408713 204.88251202 -28.74609375 198.19775391 C-29.37164909 196.71595642 -29.37164909 196.71595642 -30.00984192 195.20422363 C-30.84948168 193.2152312 -31.68907145 191.22621767 -32.52861023 189.23718262 C-34.56950755 184.4021554 -36.61136778 179.56753985 -38.65551758 174.73388672 C-41.98929678 166.84890372 -45.31966257 158.96305125 -48.59765625 151.0546875 C-61.16803466 120.79289784 -75.95464292 95.59330474 -107.29882812 81.90332031 C-148.70942347 65.40151021 -191.6299315 76.71316796 -221.4921875 108.50390625 Z M427.7578125 752.12890625 C426.88382813 752.99257812 426.00984375 753.85625 425.109375 754.74609375 C412.82860122 767.48031148 406.22288176 782.99347445 399.42288208 799.08946228 C397.533097 803.49633387 395.45802159 807.78168445 393.29766846 812.06181335 C383.29407641 829.9931293 383.29407641 829.9931293 381.44140625 849.625 C383.28113895 854.74364982 386.03178731 859.27077123 388.89160156 863.87841797 C392.12307784 869.5068684 394.38405317 875.53368448 396.78500366 881.55166626 C398.34480713 885.43227154 399.96594292 889.28710828 401.58203125 893.14453125 C401.9170314 893.94667557 402.25203156 894.74881989 402.59718323 895.57527161 C409.52249735 912.15517585 416.53985677 928.69663302 423.53851318 945.2456665 C427.13398299 953.74776382 430.72804975 962.2504534 434.3203125 970.75390625 C434.71343628 971.68443817 435.10656006 972.61497009 435.51159668 973.57369995 C441.66253112 988.13605143 447.77652529 1002.71359097 453.87384033 1017.29846191 C461.98996286 1036.70991712 470.17415829 1056.09237816 478.36669922 1075.47167969 C482.72947592 1085.79251869 487.08619459 1096.11591703 491.44403076 1106.43884277 C492.63061829 1109.24960899 493.81724615 1112.06035817 495.00390625 1114.87109375 C495.59141663 1116.262677 495.59141663 1116.262677 496.1907959 1117.68237305 C498.57456106 1123.32804237 500.95973138 1128.97311582 503.34597778 1134.61773682 C511.89057737 1154.82998573 520.40979598 1175.05233821 528.87384033 1195.29846191 C536.98996286 1214.70991712 545.17415829 1234.09237816 553.36669922 1253.47167969 C557.72947592 1263.79251869 562.08619459 1274.11591703 566.44403076 1284.43884277 C567.63061829 1287.24960899 568.81724615 1290.06035817 570.00390625 1292.87109375 C570.39557983 1293.79881592 570.78725342 1294.72653809 571.1907959 1295.68237305 C573.57456106 1301.32804237 575.95973138 1306.97311582 578.34597778 1312.61773682 C586.89057737 1332.82998573 595.40979598 1353.05233821 603.87384033 1373.29846191 C611.98996286 1392.70991712 620.17415829 1412.09237816 628.36669922 1431.47167969 C632.72947592 1441.79251869 637.08619459 1452.11591703 641.44403076 1462.43884277 C642.63061829 1465.24960899 643.81724615 1468.06035817 645.00390625 1470.87109375 C645.39557983 1471.79881592 645.78725342 1472.72653809 646.1907959 1473.68237305 C648.57456106 1479.32804237 650.95973138 1484.97311582 653.34597778 1490.61773682 C661.89057737 1510.82998573 670.40979598 1531.05233821 678.87384033 1551.29846191 C686.98996286 1570.70991712 695.17415829 1590.09237816 703.36669922 1609.47167969 C707.72947592 1619.79251869 712.08619459 1630.11591703 716.44403076 1640.43884277 C717.63061829 1643.24960899 718.81724615 1646.06035817 720.00390625 1648.87109375 C720.39557983 1649.79881592 720.78725342 1650.72653809 721.1907959 1651.68237305 C723.57456106 1657.32804237 725.95973138 1662.97311582 728.34597778 1668.61773682 C736.89057737 1688.82998573 745.40979598 1709.05233821 753.87384033 1729.29846191 C761.98996286 1748.70991712 770.17415829 1768.09237816 778.36669922 1787.47167969 C782.72947592 1797.79251869 787.08619459 1808.11591703 791.44403076 1818.43884277 C792.63061829 1821.24960899 793.81724615 1824.06035817 795.00390625 1826.87109375 C795.39557983 1827.79881592 795.78725342 1828.72653809 796.1907959 1829.68237305 C798.57456106 1835.32804237 800.95973138 1840.97311582 803.34597778 1846.61773682 C811.89057737 1866.82998573 820.40979598 1887.05233821 828.87384033 1907.29846191 C836.98996286 1926.70991712 845.17415829 1946.09237816 853.36669922 1965.47167969 C856.93834314 1973.92096885 860.50562026 1982.37210164 864.07324219 1990.8230896 C865.25439679 1993.62081568 866.43575769 1996.41845457 867.6171875 1999.21606445 C872.08135537 2009.78741472 876.54285455 2020.35988404 881.00067139 2030.93391418 C883.03182843 2035.75090154 885.06503148 2040.56700515 887.10302734 2045.38110352 C887.87988515 2047.2163076 888.65674066 2049.05151266 889.43359375 2050.88671875 C889.9947287 2052.21203865 889.9947287 2052.21203865 890.56719971 2053.56413269 C892.5530846 2058.26007752 894.52305052 2062.96201677 896.47024536 2067.6741333 C904.08864188 2086.23017236 904.08864188 2086.23017236 914.7578125 2103.12890625 C915.49644531 2104.1034375 916.23507812 2105.07796875 916.99609375 2106.08203125 C932.84714797 2126.12170602 954.01713431 2140.47397699 978.7578125 2147.12890625 C980.52898437 2147.60650391 980.52898437 2147.60650391 982.3359375 2148.09375 C1011.1424946 2154.63247687 1042.05234849 2149.48492181 1067.30859375 2134.39453125 C1093.14323433 2117.83556711 1112.5562289 2092.15950984 1119.7578125 2062.12890625 C1122.53283105 2048.34430324 1123.56798653 2035.08366121 1121.6328125 2021.12890625 C1121.54 2020.32324219 1121.4471875 2019.51757812 1121.3515625 2018.6875 C1118.84332644 2000.43311536 1110.15257964 1983.22229558 1102.8828125 1966.50390625 C1101.81561858 1964.03418983 1100.74907997 1961.56420242 1099.68359375 1959.09375 C1097.7525623 1954.6181331 1095.81924689 1950.14351777 1093.88282394 1945.67023087 C1088.97136892 1934.32339494 1084.10450002 1922.95753591 1079.23968506 1911.59063721 C1076.74769411 1905.76921743 1074.2525866 1899.9491337 1071.7578125 1894.12890625 C1070.75779777 1891.79557923 1069.75779776 1889.4622459 1068.7578125 1887.12890625 C1068.2628125 1885.97390625 1067.7678125 1884.81890625 1067.2578125 1883.62890625 C993.0078125 1710.37890625 993.0078125 1710.37890625 654.7578125 921.12890625 C654.26285278 919.97400192 653.76789307 918.8190976 653.25793457 917.62919617 C652.25752276 915.29489855 651.25711586 912.96059882 650.25671387 910.626297 C647.76305479 904.80769999 645.26931147 898.98913911 642.77539062 893.1706543 C637.15066787 880.04750896 631.52797972 866.92349496 625.90834045 853.798172 C623.35076015 847.82541605 620.79148655 841.85339682 618.22827148 835.88305664 C617.24722469 833.59782261 616.26618615 831.31258504 615.28515625 829.02734375 C614.57425087 827.37154549 614.57425087 827.37154549 613.84898376 825.68229675 C611.26346422 819.65541173 608.69175643 813.62299945 606.13870239 807.58229065 C604.70064022 804.1825425 603.25458866 800.78622839 601.80712891 797.39047241 C601.16721431 795.88339993 600.5310729 794.37471757 599.89941406 792.86416626 C587.84969508 764.05593445 570.05541514 742.70675643 541.34375 729.56640625 C502.48485222 713.68247723 457.14739668 722.40817182 427.7578125 752.12890625 Z " fill="#004452" transform="translate(2052.2421875,1047.87109375)"/>
</svg>
