<svg xmlns="http://www.w3.org/2000/svg" width="131" height="32" viewBox="0 0 131 32" fill="none"><path d="M28.0403 32C26.7034 32 25.5037 31.2051 24.987 29.9729L18.4757 14.5149L12.7016 27.9892C11.6573 30.4246 9.27248 32 6.62027 32C4.39804 32 2.33842 30.8943 1.10626 29.0443C-0.122282 27.1942 -0.342698 24.8636 0.520897 22.8148L9.33391 1.89341C9.82532 0.726287 10.9166 0 12.1849 0C13.4531 0 14.5444 0.726287 15.0358 1.88979L18.5299 10.1825C19.1153 9.37669 20.0403 8.89612 21.081 8.89612C22.3673 8.89612 23.4802 9.62963 23.9897 10.8112L31.09 27.3785C31.5308 28.4047 31.426 29.5754 30.8118 30.5077C30.1975 31.4399 29.1605 31.9964 28.0439 31.9964M19.4224 12.3035L26.5841 29.3008C26.8335 29.8862 27.4044 30.2656 28.0403 30.2656C28.5823 30.2656 29.0629 30.0054 29.3592 29.5574C29.6591 29.1057 29.7061 28.5601 29.4929 28.065L22.3926 11.4977C22.1614 10.9557 21.6699 10.6305 21.081 10.6305C20.492 10.6305 20.0006 10.9557 19.7693 11.4977L19.426 12.3035H19.4224ZM12.1849 1.73442C11.6212 1.73442 11.1514 2.04517 10.931 2.56549L2.11801 23.4905C1.47121 25.0226 1.6302 26.6992 2.548 28.0867C3.46941 29.4743 4.95089 30.2692 6.61665 30.2692C8.57148 30.2692 10.3348 29.1093 11.1045 27.3098L17.5399 12.2999L13.4387 2.56911C13.2183 2.04878 12.7522 1.73803 12.1885 1.73803" fill="#E2E2E2"></path><path d="M45.8148 13.2105C45.2836 13.2105 44.8067 13.5248 44.5935 14.009L40.2285 24H42.1581L43.2601 21.4128H48.3261L49.4137 24H51.4047L47.0397 14.009C46.8265 13.5248 46.3496 13.2105 45.8184 13.2105M43.9467 19.7471L45.7823 15.4616L47.6323 19.7471H43.9431H43.9467ZM62.7543 19.5086C63.065 19.3207 63.3324 19.0894 63.5564 18.8184C63.7805 18.5474 63.9575 18.2367 64.084 17.8862C64.2105 17.5357 64.2755 17.1382 64.2755 16.701V16.6685C64.2755 16.1987 64.1996 15.7724 64.0442 15.3821C63.8925 14.9955 63.6721 14.6522 63.3866 14.3559C63.0397 14.0199 62.6061 13.7561 62.0858 13.5682C61.5655 13.3803 60.9693 13.2864 60.2936 13.2864H55.5203V24H57.3884V20.2638H59.7516L62.3929 24H64.6115L61.7208 19.9458C62.0966 19.8446 62.4435 19.7001 62.7543 19.5086ZM57.3884 18.598V14.9846H60.1346C60.8392 14.9846 61.3884 15.1364 61.7787 15.4399C62.1689 15.7435 62.3604 16.1843 62.3604 16.7697V16.8022C62.3604 17.355 62.1617 17.7922 61.7606 18.1174C61.3595 18.439 60.8247 18.6016 60.149 18.6016H57.3848L57.3884 18.598ZM102.852 20.6938L97.4751 13.7416C97.2547 13.4562 96.9151 13.2864 96.5501 13.2864C95.9069 13.2864 95.383 13.8103 95.383 14.4535V24H97.2511V16.3794L103.145 24H104.716V13.2864H102.848V20.6938H102.852ZM108.745 15.0316H112.142V24H114.039V15.0316H117.435V13.2864H108.742V15.0316H108.745ZM125.974 14.009C125.761 13.5248 125.28 13.2105 124.752 13.2105C124.225 13.2105 123.741 13.5248 123.531 14.009L119.166 24H121.096L122.198 21.4128H127.264L128.351 24H130.342L125.977 14.009H125.974ZM122.884 19.7471L124.72 15.4616L126.574 19.7471H122.884ZM78.2339 18.1933H75.2095C74.7254 18.1933 74.3351 18.5836 74.3351 19.0678C74.3351 19.5519 74.7254 19.9422 75.2095 19.9422H76.4778V21.5321C76.1996 21.7489 75.9178 21.9332 75.6359 22.0849C75.1662 22.3342 74.6061 22.4607 73.9521 22.4607C73.4426 22.4607 72.9693 22.3595 72.5357 22.1608C72.1021 21.9621 71.7263 21.6874 71.4119 21.3406C71.0975 20.9937 70.8518 20.589 70.6784 20.1229C70.5049 19.6567 70.4182 19.1653 70.4182 18.645V18.6125C70.4182 18.0921 70.5049 17.6007 70.6784 17.1418C70.8518 16.6829 71.0975 16.2818 71.4119 15.9422C71.7299 15.5989 72.1021 15.3315 72.5357 15.1292C72.9693 14.9304 73.4426 14.8293 73.9521 14.8293C74.5628 14.8293 75.112 14.9521 75.589 15.1978C76.0695 15.4435 76.5212 15.7651 76.9512 16.1626L78.1581 14.7678C77.9051 14.5221 77.6341 14.2981 77.3487 14.0958C77.0632 13.8934 76.7525 13.7164 76.4164 13.5682C76.0804 13.4201 75.7082 13.3044 75.3071 13.2249C74.9024 13.1418 74.458 13.1021 73.9666 13.1021C73.1499 13.1021 72.4056 13.2466 71.7335 13.5393C71.0614 13.8284 70.476 14.2295 69.9846 14.7317C69.4932 15.2376 69.1102 15.8229 68.8356 16.4914C68.5609 17.1599 68.4273 17.8753 68.4273 18.6414V18.6739C68.4273 19.4399 68.5682 20.159 68.8428 20.8311C69.121 21.5032 69.504 22.0885 69.9918 22.5836C70.4797 23.0786 71.0542 23.4688 71.719 23.7543C72.3803 24.0397 73.1066 24.1843 73.8943 24.1843C74.3929 24.1843 74.8518 24.1409 75.2638 24.0542C75.6793 23.9675 76.0587 23.841 76.4056 23.6712C76.7525 23.5014 77.0777 23.3026 77.3776 23.075C77.6775 22.8437 77.9665 22.5836 78.2412 22.2873V18.1933H78.2339ZM82.8085 24H90.8085V22.3017H84.7488V19.4399H90.2195V17.7416H84.7488V14.9883H90.8085V13.29H82.8085V24.0036V24Z" fill="#E2E2E2"></path></svg>